<svg width="17" height="15" viewBox="0 0 17 15" fill="none" xmlns="http://www.w3.org/2000/svg"><path d="M6.25 10c.3 0 .5-.2.5-.5s-.2-.5-.5-.5-.5.2-.5.5.2.5.5.5Z" fill="#000"/><path d="M15.5 2h-2V0h-1v2h-8V0h-1v2h-2c-.6 0-1 .4-1 1v11c0 .5.4 1 1 1h14c.5 0 1-.5 1-1V3c0-.6-.5-1-1-1Zm0 12h-14V7h14v7Zm-14-8V3h2v2h1V3h8v2h1V3h2v3h-14Z" fill="#000"/><path d="M8.5 10c.3 0 .5-.2.5-.5S8.8 9 8.5 9s-.5.2-.5.5.2.5.5.5ZM10.75 10c.3 0 .5-.2.5-.5s-.2-.5-.5-.5-.5.2-.5.5.2.5.5.5ZM6.25 11c-.3 0-.5.2-.5.5s.2.5.5.5.5-.2.5-.5-.2-.5-.5-.5ZM4 10c.3 0 .5-.2.5-.5S4.3 9 4 9s-.5.2-.5.5.2.5.5.5ZM4 11c-.3 0-.5.2-.5.5s.2.5.5.5.5-.2.5-.5-.2-.5-.5-.5ZM8.5 11c-.3 0-.5.2-.5.5s.2.5.5.5.5-.2.5-.5-.2-.5-.5-.5ZM10.75 11c-.3 0-.5.2-.5.5s.2.5.5.5.5-.2.5-.5-.2-.5-.5-.5ZM13 10c.3 0 .5-.2.5-.5S13.3 9 13 9s-.5.2-.5.5.2.5.5.5ZM13 11c-.3 0-.5.2-.5.5s.2.5.5.5.5-.2.5-.5-.2-.5-.5-.5Z" fill="#000"/></svg>